inDegrees=no
num_controls=7
num_derivatives=13
num_iterations=69
num_multipliers=7
num_parameters=0
num_slacks=7
num_states=26
objective=0.473486
objective_accelerations=0.038251
objective_balance=0.001205
objective_effort=0.016104
objective_height=0.407206
objective_ligament=0.010719
solver_duration=977.301558
status=Solve_Succeeded
success=true
DataType=double
version=3
OpenSimVersion=4.5
endheader
time	/jointset/ground_pelvis/pelvis_tilt/value	/jointset/ground_pelvis/pelvis_tx/value	/jointset/ground_pelvis/pelvis_ty/value	/jointset/hip_l/hip_flexion_l/value	/jointset/hip_l/hip_adduction_l/value	/jointset/hip_l/hip_rotation_l/value	/jointset/back/lumbar_extension/value	/jointset/patellofemoral_l/patellar_flexion_l/value	/jointset/knee_l/knee_flexion_l/value	/jointset/knee_l/knee_adduction_l/value	/jointset/knee_l/knee_rotation_l/value	/jointset/ankle_l/ankle_angle_l/value	/jointset/subtalar_l/subtalar_angle_l/value	/jointset/ground_pelvis/pelvis_tilt/speed	/jointset/ground_pelvis/pelvis_tx/speed	/jointset/ground_pelvis/pelvis_ty/speed	/jointset/hip_l/hip_flexion_l/speed	/jointset/hip_l/hip_adduction_l/speed	/jointset/hip_l/hip_rotation_l/speed	/jointset/back/lumbar_extension/speed	/jointset/patellofemoral_l/patellar_flexion_l/speed	/jointset/knee_l/knee_flexion_l/speed	/jointset/knee_l/knee_adduction_l/speed	/jointset/knee_l/knee_rotation_l/speed	/jointset/ankle_l/ankle_angle_l/speed	/jointset/subtalar_l/subtalar_angle_l/speed	/forceset/tau_hip_flexion_l	/forceset/tau_hip_adduction_l	/forceset/tau_hip_rotation_l	/forceset/tau_knee_flexion_l	/forceset/tau_ankle_angle_l	/forceset/tau_subtalar_angle_l	/forceset/tau_lumbar_extension	lambda_cid13_p0	lambda_cid13_p1	lambda_cid13_p2	lambda_cid13_p3	lambda_cid13_p4	lambda_cid13_p5	lambda_cid14_p0	/jointset/ground_pelvis/pelvis_tilt/accel	/jointset/ground_pelvis/pelvis_tx/accel	/jointset/ground_pelvis/pelvis_ty/accel	/jointset/hip_l/hip_flexion_l/accel	/jointset/hip_l/hip_adduction_l/accel	/jointset/hip_l/hip_rotation_l/accel	/jointset/back/lumbar_extension/accel	/jointset/patellofemoral_l/patellar_flexion_l/accel	/jointset/knee_l/knee_flexion_l/accel	/jointset/knee_l/knee_adduction_l/accel	/jointset/knee_l/knee_rotation_l/accel	/jointset/ankle_l/ankle_angle_l/accel	/jointset/subtalar_l/subtalar_angle_l/accel	gamma_cid13_p0	gamma_cid13_p1	gamma_cid13_p2	gamma_cid13_p3	gamma_cid13_p4	gamma_cid13_p5	gamma_cid14_p0
1	-0.7637847038079951	-0.0974535216051482	0.7191018463691536	1.622180476340131	-0.3492966368029249	-0.05119586277813242	-0.436098700774854	0.7516989994272674	0.7516989994272799	-0.04487607707639808	-0.1741004993496645	0.0002569780135454823	0.07215047737802299	-0.1148185363389524	0.03067031422195015	0.01695638967689801	0.0009143477610649702	-0.01596397229564706	-0.01604749474214091	-0.005989253568743073	-0.09922024535218209	-0.09922024535220807	-0.046715936365671	0.0005585776653467179	0.003335566181490314	-0.01507085047746917	-0.3411302089155747	0.05449687328368547	0.003808609649385942	-0.04837237159330427	0.02518435141706895	0.00186813922134507	0.257014768283563	-20.95039009927194	0.6906370695979031	2.083309360243799	0.3119557716006855	-514.3476984010714	-45.5520306518505	-13.04356972401709	3.188029575716342	0.587520015774488	1.037378664646816	-5.869265745684748	-0.06210595950190009	-0.863907629174628	-0.1314559692614263	-2.53916876075	-2.539168760750043	-0.3064999777162183	-0.03269724986408194	-0.04768809423820859	-0.0661978064612217	-1.809575831231716e-08	-3.079258861552457e-08	-5.100751591920022e-08	1.133093113440318e-08	2.702478117759795e-09	6.835905633053433e-09	-5.509868997028155e-09
1.01	-0.764776444272401	-0.09711768752248867	0.7193229440766015	1.621899341488936	-0.3494582515739538	-0.05139797075720141	-0.4361614735148246	0.7505793684172862	0.7505793684172839	-0.04535762896752261	-0.1740941134644322	0.0002875608719893253	0.07199747718338398	-0.08373629601900594	0.03648058923370698	0.02724149938726331	-0.05693000788411314	-0.01626965784477891	-0.02434290235911521	-0.006298454509920212	-0.1247570855087819	-0.124757085508795	-0.04947057099959912	0.0008407843867127854	0.002748303038088549	-0.01544815256438374	-0.3414547984649724	0.0547118808246175	0.003982958396571927	-0.04769752976429345	0.02445899442544395	0.001828072712982795	0.2572783051052731	-21.17804999241614	0.7110581479271082	2.122135343389711	0.3100177618125345	-514.3164667170699	-45.5132392496671	-13.09106658463418	3.0373095260922	0.5753974285036868	1.020829176208836	-5.710324807569387	-0.001391449315764629	-0.8076760379578715	0.05937383112035166	-2.56861015792934	-2.568610157926861	-0.2413710192243071	0.0770009096398163	-0.0691556223578791	-0.01133257974038397	-1.737783326120848e-08	-2.179376986285489e-08	-3.82504506658485e-08	1.569436826848305e-08	-3.882446209273933e-10	4.80806916589526e-09	-4.088665689374927e-09
1.02	-0.765463564680455	-0.09672422745278515	0.7196462432915458	1.621046102214614	-0.3496202415198189	-0.05168209655440915	-0.4362193330665917	0.7492028353027579	0.7492028353027091	-0.04586301236752605	-0.1740812412566949	0.0003112890594369986	0.07184313673388862	-0.0538945250605942	0.04219551163075053	0.0373966911770315	-0.1135065368745875	-0.01603900726178433	-0.03245105837605838	-0.005006615944401935	-0.1506006662579578	-0.1506006662579557	-0.05148223815323392	0.001855842168210024	0.001964631975999504	-0.01533890144864282	-0.3417793880138065	0.0549268883656646	0.004157307143968185	-0.04702268793542677	0.02373363743370671	0.001788006204706381	0.2575418419276402	-21.41082129729868	0.7306140042906607	2.163109998652609	0.2994193891126915	-514.3853667036087	-45.49313450790923	-13.14884537652227	2.939935703410062	0.5684494928312565	1.011395080527263	-5.615700414743883	0.04516126692343247	-0.8264573091679696	0.18875193207822	-2.600516879265317	-2.600516879264871	-0.1579064816577661	0.1138729621625126	-0.0869696779765784	0.03111283406965118	-1.031317176711089e-08	-3.472106486645574e-08	-3.155272719060317e-08	2.753083241247058e-09	-4.270775122777566e-09	6.453398806554677e-09	-5.842680458201852e-09
1.03	-0.7658550484155505	-0.09627378075717748	0.7200706891527575	1.619630209835415	-0.3497779439973051	-0.05204799362194038	-0.4362604124863598	0.7475674118501835	0.7475674118502653	-0.04638478640785505	-0.1740567852740078	0.0003269549203775539	0.07169184713099733	-0.02426858447025985	0.0479093614691958	0.04749506907960496	-0.1697827891257478	-0.01548741354710026	-0.0408031043984241	-0.003354786224562175	-0.1764290696276348	-0.1764290696276513	-0.05279211822278954	0.002975059844125141	0.001208942202349698	-0.01489214390828772	-0.341780604937539	0.05502169584395633	0.004338379433505421	-0.04640559618060587	0.02319766760280891	0.001750033110900903	0.2575045956358756	-21.56611039431959	0.7406467062563914	2.199945757580091	0.1790190429971095	-514.20756163167	-45.48201234176662	-13.2167685362822	2.993967410375811	0.575180672394792	1.009445691190954	-5.65021676391919	0.06228056641136986	-0.8507950605862716	0.1315707605282426	-2.56575733543596	-2.565757335438528	-0.105471877493679	0.1018996614936925	-0.06381092999577415	0.05549915741945002	-3.183747656248074e-09	-4.787209572471254e-08	-2.491683373350181e-08	-1.036478058355348e-08	-8.161385295680425e-09	8.136209734028581e-09	-7.629095411482675e-09
